<?xml version="1.0" encoding="UTF-8"?>
<svg version="1.1" xmlns="http://www.w3.org/2000/svg" width="567" height="567">
<path d="M0 0 C1.10456543 0.44400146 1.10456543 0.44400146 2.23144531 0.89697266 C28.60204239 11.66273692 52.51928355 27.54249245 73.50390625 46.7265625 C75.14162692 48.21819541 76.79495423 49.69290781 78.46484375 51.1484375 C126.12148641 92.8574107 153.29293449 157.29870639 157.80810547 219.6171875 C160.05755321 259.27157418 153.86829219 298.16592504 139 335 C138.70399902 335.73637695 138.40799805 336.47275391 138.10302734 337.23144531 C127.33726308 363.60204239 111.45750755 387.51928355 92.2734375 408.50390625 C90.78180459 410.14162692 89.30709219 411.79495423 87.8515625 413.46484375 C46.1425893 461.12148641 -18.29870639 488.29293449 -80.6171875 492.80810547 C-120.27157418 495.05755321 -159.16592504 488.86829219 -196 474 C-196.73637695 473.70399902 -197.47275391 473.40799805 -198.23144531 473.10302734 C-224.60204239 462.33726308 -248.51928355 446.45750755 -269.50390625 427.2734375 C-271.14162692 425.78180459 -272.79495423 424.30709219 -274.46484375 422.8515625 C-322.12148641 381.1425893 -349.29293449 316.70129361 -353.80810547 254.3828125 C-356.05755321 214.72842582 -349.86829219 175.83407496 -335 139 C-334.70399902 138.26362305 -334.40799805 137.52724609 -334.10302734 136.76855469 C-323.33726308 110.39795761 -307.45750755 86.48071645 -288.2734375 65.49609375 C-286.78180459 63.85837308 -285.30709219 62.20504577 -283.8515625 60.53515625 C-242.1425893 12.87851359 -177.70129361 -14.29293449 -115.3828125 -18.80810547 C-75.72842582 -21.05755321 -36.83407496 -14.86829219 0 0 Z " fill="#FBFBFB" transform="translate(381,46)"/>
<path d="M0 0 C2.95265151 0.00108971 5.90528249 -0.00386189 8.85792947 -0.00860542 C15.8240374 -0.0195791 22.79009133 -0.02020328 29.75620365 -0.01409125 C36.90017811 -0.00801952 44.04395721 -0.02047099 51.1878984 -0.04166132 C57.37791548 -0.05933457 63.56787058 -0.06527093 69.75791192 -0.06202358 C73.43117182 -0.0602246 77.10429125 -0.06270934 80.77752781 -0.07673812 C84.86299591 -0.09177018 88.94806795 -0.08229648 93.0335474 -0.07073188 C94.22439945 -0.07837562 95.4152515 -0.08601935 96.64218998 -0.09389472 C112.0306344 0.0019545 124.98053165 4.17451903 136.23764896 14.84845757 C145.63631084 25.04251571 148.32003565 36.62905941 147.83530521 50.11798882 C147.11929106 61.35331735 142.1840766 70.19450801 134.49936771 78.30158257 C126.41359319 84.75856798 116.20571763 90.39812361 105.65973759 90.44634271 C104.20120365 90.45669045 104.20120365 90.45669045 102.71320438 90.46724725 C101.65247715 90.46986062 100.59174992 90.47247399 99.49887943 90.47516656 C97.81499119 90.48519708 97.81499119 90.48519708 96.097085 90.49543023 C93.65590216 90.50948657 91.21470613 90.52137876 88.7735033 90.53137803 C84.89522193 90.54781976 81.01703623 90.57106535 77.13880253 90.59627557 C66.11011386 90.66691935 55.08138433 90.72683815 44.05259037 90.77838922 C37.30462038 90.81001383 30.55676196 90.85177712 23.80888081 90.8985846 C21.25039581 90.91447148 18.69188632 90.92685341 16.13336658 90.9354918 C-18.83394961 91.05514071 -46.773092 94.55418165 -72.77016354 119.47736382 C-84.5871462 131.85373029 -92.93592457 149.41448112 -95.50063229 166.30158257 C-95.66498775 167.29738336 -95.66498775 167.29738336 -95.83266354 168.31330132 C-99.13678247 192.14701254 -92.87768615 215.99003141 -78.50063229 235.30158257 C-76.39304446 237.77280352 -74.24509107 240.17314669 -72.00453854 242.52423882 C-70.50063229 244.30158257 -70.50063229 244.30158257 -70.50063229 246.30158257 C-69.91797604 246.56712945 -69.33531979 246.83267632 -68.73500729 247.10627007 C-66.43452227 248.33694912 -64.72551353 249.7281847 -62.75063229 251.42658257 C-47.93491029 263.09883724 -30.48843426 267.38982267 -12.13979244 269.64435601 C-0.03295927 271.26980201 9.97250014 275.67011274 19.49936771 283.30158257 C20.12456303 283.80044976 20.74975834 284.29931695 21.39389896 284.81330132 C32.12473647 294.4298758 37.47958724 309.18858032 38.65952396 323.20392632 C39.38576989 340.16018989 32.63625719 354.00679344 21.49936771 366.30158257 C18.96495265 368.83097899 16.32379649 371.10299062 13.49936771 373.30158257 C12.88190678 373.80173882 12.26444584 374.30189507 11.62827396 374.81720757 C6.64231528 378.5105103 1.23736633 380.79724303 -4.50063229 383.05158257 C-5.2481274 383.34548882 -5.99562252 383.63939507 -6.765769 383.94220757 C-37.16238324 395.41814146 -72.48611986 388.34082051 -101.55922604 376.11798882 C-115.39768896 369.86382546 -128.58363997 362.74635412 -140.50063229 353.30158257 C-141.52672604 352.49720757 -142.55281979 351.69283257 -143.61000729 350.86408257 C-170.71000953 329.03940078 -190.45934329 301.97079416 -204.50063229 270.30158257 C-204.93375729 269.4172857 -205.36688229 268.53298882 -205.81313229 267.62189507 C-208.10273626 262.89958688 -208.94802339 259.55842803 -208.50063229 254.30158257 C-209.16063229 254.30158257 -209.82063229 254.30158257 -210.50063229 254.30158257 C-211.34709318 249.82479496 -212.17540766 245.34482927 -213.00063229 240.86408257 C-213.23910885 239.60402398 -213.47758541 238.34396539 -213.72328854 237.0457232 C-214.94701438 230.35019463 -215.79688562 224.10800292 -215.50063229 217.30158257 C-216.16063229 217.30158257 -216.82063229 217.30158257 -217.50063229 217.30158257 C-218.14121628 171.14339918 -218.14121628 171.14339918 -214.50063229 155.30158257 C-214.21059322 154.00510797 -214.21059322 154.00510797 -213.91469479 152.68244195 C-203.1752372 106.1779389 -175.96463185 64.57209245 -137.50063229 36.30158257 C-136.95697018 35.89230523 -136.41330807 35.48302789 -135.85317135 35.0613482 C-115.33136008 19.75318628 -90.7177691 10.0545748 -65.87563229 4.55158257 C-65.00140621 4.35242242 -64.12718014 4.15326226 -63.22646236 3.94806695 C-42.50585334 -0.31132182 -21.05393242 -0.01545535 0 0 Z " fill="#40A5A2" transform="translate(289.5006322860718,89.69841742515564)"/>
<path d="M0 0 C1.59789771 -0.00435584 3.19579333 -0.00954187 4.79368591 -0.01548767 C9.10364401 -0.02879395 13.41351396 -0.02946583 17.72348857 -0.02692437 C21.33409843 -0.02584913 24.94469086 -0.03075199 28.55529696 -0.03552979 C37.07887029 -0.04659563 45.60239954 -0.04707863 54.12597656 -0.04101562 C62.89254853 -0.0349753 71.65896002 -0.04729506 80.42550462 -0.06858569 C87.97830342 -0.08624795 95.53105133 -0.09219585 103.08386999 -0.08894795 C107.58338739 -0.08714261 112.08279023 -0.08969616 116.58228874 -0.10366249 C120.815297 -0.11631212 125.04805638 -0.1142299 129.28106117 -0.1012516 C130.82569847 -0.09890187 132.37035368 -0.1015623 133.9149704 -0.10987473 C152.23682806 -0.20129124 168.29345105 3.94492612 181.77758789 17.0324707 C199.62054445 35.99887268 200.59313787 58.82143906 200.02758789 83.47143555 C199.28594486 103.52927427 195.48286028 127.93836807 184.88696289 145.2746582 C183.88437523 147.60688084 182.88451778 149.94027848 181.88696289 152.2746582 C172.10038725 170.91786338 159.2525456 186.98017315 144.88696289 202.2746582 C144.26692383 202.96043945 143.64688477 203.6462207 143.00805664 204.3527832 C132.2596896 215.79847159 118.24379869 225.11196317 104.88696289 233.2746582 C104.22132324 233.68280762 103.55568359 234.09095703 102.86987305 234.51147461 C82.45152582 246.74720618 58.37729815 254.01749904 34.88696289 257.2746582 C33.39036133 257.49702148 33.39036133 257.49702148 31.86352539 257.72387695 C22.62970615 258.81772939 13.16962847 258.35648385 3.88696289 258.2746582 C6.82223543 256.31780985 9.26286129 255.37142652 12.57446289 254.2121582 C32.32110334 246.66455341 51.40005957 233.50466311 61.87915039 214.70825195 C62.21172852 214.23516602 62.54430664 213.76208008 62.88696289 213.2746582 C63.54696289 213.2746582 64.20696289 213.2746582 64.88696289 213.2746582 C66.83591963 207.50653372 68.67000481 201.70257492 70.51196289 195.8996582 C70.83680664 194.87743164 71.16165039 193.85520508 71.49633789 192.80200195 C72.29358878 190.29300651 73.09045249 187.7838888 73.88696289 185.2746582 C74.54696289 185.2746582 75.20696289 185.2746582 75.88696289 185.2746582 C75.87536133 184.2330957 75.86375977 183.1915332 75.85180664 182.1184082 C75.77668166 172.12561258 76.13598655 162.23850495 76.88696289 152.2746582 C76.22696289 152.2746582 75.56696289 152.2746582 74.88696289 152.2746582 C74.55825195 150.85926758 74.55825195 150.85926758 74.22290039 149.4152832 C69.59597686 130.3095173 60.45836902 116.84968782 44.01586914 106.11450195 C29.36575113 97.50001309 13.75297612 97.92993183 -2.72216797 97.89379883 C-19.066791 97.83366962 -32.76383348 95.74928125 -45.33178711 84.2434082 C-56.88513559 71.97908443 -60.76011687 59.59854801 -60.42163086 43.16918945 C-60.15191403 37.27458969 -58.92268233 32.47832065 -56.11303711 27.2746582 C-55.36666992 25.87860352 -55.36666992 25.87860352 -54.60522461 24.4543457 C-48.06671838 13.29326762 -39.3760462 6.45099752 -27.11303711 2.2746582 C-18.13613925 0.03144649 -9.18863536 -0.01668029 0 0 Z " fill="#EB704F" transform="translate(295.113037109375,221.725341796875)"/>
<path d="M0 0 C17.52492787 -0.070252 35.04981146 -0.12306718 52.57484818 -0.15543652 C60.71303277 -0.17086931 68.85112958 -0.19188974 76.98925781 -0.22631836 C84.08699123 -0.2563311 91.18466104 -0.27560104 98.28245616 -0.28226548 C102.03658221 -0.28615775 105.79052637 -0.29522914 109.54459381 -0.31719017 C113.0871666 -0.3377436 116.62948476 -0.34379631 120.17211151 -0.33932304 C122.07351451 -0.34052569 123.97489059 -0.35656822 125.8762207 -0.3732605 C141.38242222 -0.31817236 154.3862156 3.78290695 165.73828125 14.546875 C175.13694313 24.74093313 177.82066794 36.32747684 177.3359375 49.81640625 C176.61992334 61.05173477 171.68470888 69.89292544 164 78 C155.91422548 84.45698541 145.70634992 90.09654103 135.16036987 90.14476013 C133.70183594 90.15510788 133.70183594 90.15510788 132.21383667 90.16566467 C131.15310944 90.16827805 130.0923822 90.17089142 128.99951172 90.17358398 C127.31562347 90.1836145 127.31562347 90.1836145 125.59771729 90.19384766 C123.15653445 90.20790399 120.71533842 90.21979618 118.27413559 90.22979546 C114.39585421 90.24623718 110.51766851 90.26948278 106.63943481 90.29469299 C95.61074615 90.36533677 84.58201662 90.42525557 73.55322266 90.47680664 C66.80525267 90.50843126 60.05739425 90.55019454 53.30951309 90.59700203 C50.7510281 90.6128889 48.19251861 90.62527083 45.63399887 90.63390923 C10.66668267 90.75355813 -17.27245971 94.25259907 -43.26953125 119.17578125 C-57.62685445 134.21274106 -65.05846416 154.61387364 -67 175 C-68.63013926 172.12736916 -69.2493097 170.08512055 -69.23046875 166.7890625 C-69.22934082 165.96696289 -69.22821289 165.14486328 -69.22705078 164.29785156 C-69.21399902 163.41581055 -69.20094727 162.53376953 -69.1875 161.625 C-69.17960449 160.70686523 -69.17170898 159.78873047 -69.16357422 158.84277344 C-69.08096735 151.97593243 -68.89100355 145.11206947 -68.625 138.25 C-68.5789563 136.91316162 -68.5789563 136.91316162 -68.53198242 135.54931641 C-68.30395983 130.52904254 -67.65809838 125.85811554 -66.47265625 120.97460938 C-65.89024982 118.54149822 -65.53423848 116.10170345 -65.1875 113.625 C-62.60059445 97.71654935 -57.90863611 82.2171155 -50.46484375 67.921875 C-49.42837817 65.85447165 -48.47612227 63.74385118 -47.5859375 61.609375 C-41.63988164 48.07697201 -32.43515528 37.28625528 -22 27 C-21.50854492 26.50741699 -21.01708984 26.01483398 -20.51074219 25.50732422 C-8.53046766 13.59001539 5.56071001 5.65317555 22 2 C11.11 1.505 11.11 1.505 0 1 C0 0.67 0 0.34 0 0 Z " fill="#4FB6A9" transform="translate(260,90)"/>
<path d="M0 0 C1.81054186 0.01006127 3.62108921 0.01918149 5.43164062 0.02734375 C9.80873258 0.04908177 14.1855533 0.08343355 18.5625 0.125 C16.5625 2.125 16.5625 2.125 12.9375 2.75 C-2.97545127 6.0148543 -16.95744096 17.28704596 -28.4375 28.125 C-29.05367188 28.68832031 -29.66984375 29.25164062 -30.3046875 29.83203125 C-41.00295071 39.96333581 -49.8250653 53.54448899 -55.4375 67.125 C-56.03958449 68.41763854 -56.64348871 69.70943261 -57.25 71 C-64.21065599 86.70814704 -68.9224305 103.19079654 -71.04296875 120.234375 C-71.4375 123.125 -71.4375 123.125 -71.94238281 125.02661133 C-72.46722014 127.25095888 -72.64485744 129.30796734 -72.75390625 131.58984375 C-72.79596191 132.4614917 -72.83801758 133.33313965 -72.88134766 134.23120117 C-72.94008057 135.63269409 -72.94008057 135.63269409 -73 137.0625 C-73.0417334 138.03743408 -73.0834668 139.01236816 -73.12646484 140.0168457 C-73.52286915 150.05720039 -73.61994338 160.0789689 -73.4375 170.125 C-73.42493164 170.94097656 -73.41236328 171.75695312 -73.39941406 172.59765625 C-72.89323226 198.34061653 -66.07055615 222.32408908 -47.94140625 241.34765625 C-46.4375 243.125 -46.4375 243.125 -46.4375 245.125 C-45.85484375 245.39054688 -45.2721875 245.65609375 -44.671875 245.9296875 C-42.37138999 247.16036654 -40.66238125 248.55160213 -38.6875 250.25 C-27.18721683 259.31025598 -12.01981615 265.76850547 2.5625 267.125 C2.5625 267.785 2.5625 268.445 2.5625 269.125 C-28.66353249 276.49007909 -56.83038164 281.7319083 -85.73291016 264.22509766 C-90.31608722 261.26723518 -94.4117288 257.78965551 -98.4375 254.125 C-99.06914062 253.56296875 -99.70078125 253.0009375 -100.3515625 252.421875 C-109.79513659 243.53887837 -116.32633447 232.41251806 -122.4375 221.125 C-122.83710938 220.44308594 -123.23671875 219.76117188 -123.6484375 219.05859375 C-134.27412374 200.05986676 -136.18261786 175.33053412 -136 154.125 C-135.99673706 153.09884583 -135.99347412 152.07269165 -135.9901123 151.01544189 C-135.87571583 126.30340061 -132.38009307 102.97321056 -122.4375 80.125 C-121.94507813 78.98289062 -121.45265625 77.84078125 -120.9453125 76.6640625 C-115.05293355 63.33610397 -107.52419831 51.9054685 -97.91796875 40.96484375 C-96.34636454 39.16554255 -94.81201875 37.3324143 -93.33203125 35.45703125 C-83.20306187 22.9890009 -64.75711323 9.68382672 -48.51953125 7.421875 C-46.18303793 7.15214423 -46.18303793 7.15214423 -43.0625 6 C-40.4375 5.125 -40.4375 5.125 -36.4375 5.125 C-36.1075 4.135 -35.7775 3.145 -35.4375 2.125 C-23.56673157 0.11883222 -12.01335533 -0.11761482 0 0 Z " fill="#2C747C" transform="translate(265.4375,90.875)"/>
<path d="M0 0 C21.17567151 -0.07020166 42.35132373 -0.12304274 63.52708817 -0.15543652 C73.36022084 -0.17087988 83.19328104 -0.19192085 93.02636719 -0.22631836 C101.60075645 -0.25629837 110.1750932 -0.27559338 118.74953341 -0.28226548 C123.28612443 -0.28616321 127.82256527 -0.29527024 132.35910797 -0.31719017 C136.63708443 -0.33769148 140.91485017 -0.34380649 145.19287109 -0.33932304 C146.75524799 -0.34014218 148.31763261 -0.34602607 149.87996674 -0.35761642 C168.26780534 -0.487232 184.35268625 3.61804842 197.890625 16.7578125 C215.73358156 35.72421447 216.70617498 58.54678085 216.140625 83.19677734 C215.39898197 103.25461606 211.59589739 127.66370987 201 145 C199.99741234 147.33222264 198.99755489 149.66562028 198 152 C188.21342436 170.64320517 175.36558271 186.70551494 161 202 C160.37996094 202.68578125 159.75992188 203.3715625 159.12109375 204.078125 C145.77664483 218.28832116 127.8281392 229.51578718 110.75 238.6875 C109.92709473 239.13440186 109.10418945 239.58130371 108.25634766 240.04174805 C107.48597168 240.44433838 106.7155957 240.84692871 105.921875 241.26171875 C104.89465332 241.80252075 104.89465332 241.80252075 103.84667969 242.35424805 C102 243 102 243 99 242 C99.65484375 241.67128906 100.3096875 241.34257812 100.984375 241.00390625 C107.66406707 237.52254131 113.44993155 233.58913482 119.37109375 228.953125 C122 227 122 227 124.22265625 225.984375 C126.53575927 224.70327179 126.89660451 223.3650469 128 221 C129.18700975 219.75022882 130.42115731 218.54431447 131.6875 217.375 C138.42016018 210.80061212 143.15392183 202.99986524 147.73828125 194.8359375 C148.15464844 194.23007812 148.57101562 193.62421875 149 193 C149.66 193 150.32 193 151 193 C151.18175781 192.43152344 151.36351562 191.86304688 151.55078125 191.27734375 C152.75493598 187.57842742 153.99812481 184.00427543 155.5625 180.4375 C162.19348504 164.58079665 162.74833761 143.19094733 156.546875 127.234375 C151.81032683 117.33068338 144.6492873 108.42772411 135 103 C135 102.34 135 101.68 135 101 C133.68 101 132.36 101 131 101 C129.97388051 99.34928604 128.97691857 97.68029994 128 96 C126.88625 95.3503125 126.88625 95.3503125 125.75 94.6875 C120.30335418 91.34524006 115.84843169 85.69686338 113 80 C113 79.34 113 78.68 113 78 C112.34 78 111.68 78 111 78 C104.92875834 61.05111704 101.97430839 46.91608373 110.015625 29.84375 C110.93290734 28.18390576 111.96304692 26.58783441 113 25 C113.53625 24.071875 114.0725 23.14375 114.625 22.1875 C122.75878623 11.27110269 130.87743201 5.280642 144 2 C96.48 1.67 48.96 1.34 0 1 C0 0.67 0 0.34 0 0 Z " fill="#F1A553" transform="translate(279,222)"/>
<path d="M0 0 C10.35379608 -0.06980407 20.7075353 -0.12296473 31.06151962 -0.15543652 C35.87036254 -0.17102884 40.67904333 -0.19214825 45.48779297 -0.22631836 C50.13678815 -0.25914295 54.78562832 -0.27690127 59.43473053 -0.28463173 C61.19996833 -0.29013408 62.96519857 -0.30087768 64.73036957 -0.31719017 C74.59920204 -0.40468483 83.51188865 -0.10652467 93 3 C94.85625 3.5878125 94.85625 3.5878125 96.75 4.1875 C97.4925 4.455625 98.235 4.72375 99 5 C99 5.66 99 6.32 99 7 C99.7115625 7.22429687 100.423125 7.44859375 101.15625 7.6796875 C111.76914268 12.60710196 118.71588842 24.23603388 122.8125 34.6875 C128.19774533 50.4650757 126.19883534 71.7198709 120 87 C119.34 87.66 118.68 88.32 118 89 C117.11221308 90.96488831 117.11221308 90.96488831 116.375 93.125 C116.11460937 93.84945312 115.85421875 94.57390625 115.5859375 95.3203125 C115.39257812 95.87460937 115.19921875 96.42890625 115 97 C114.34 97 113.68 97 113 97 C112.59587891 98.08087891 112.59587891 98.08087891 112.18359375 99.18359375 C104.0837545 118.45746867 85.02622789 135.22387112 67 145 C64.609375 145.7265625 64.609375 145.7265625 63 146 C63 146.66 63 147.32 63 148 C47.16988764 153.62800399 31.66119386 158.6136208 15 161 C13.49759766 161.22429687 13.49759766 161.22429687 11.96484375 161.453125 C2.73301151 162.53754424 -6.72019242 162.08180046 -16 162 C-13.06472746 160.04315164 -10.6241016 159.09676831 -7.3125 157.9375 C12.43414045 150.38989521 31.51309668 137.23000491 41.9921875 118.43359375 C42.32476562 117.96050781 42.65734375 117.48742187 43 117 C43.66 117 44.32 117 45 117 C46.94895674 111.23187552 48.78304192 105.42791672 50.625 99.625 C50.94984375 98.60277344 51.2746875 97.58054687 51.609375 96.52734375 C52.40662589 94.01834831 53.2034896 91.5092306 54 89 C54.66 89 55.32 89 56 89 C55.98839844 87.9584375 55.97679687 86.916875 55.96484375 85.84375 C55.88971877 75.85095438 56.24902366 65.96384674 57 56 C56.34 56 55.68 56 55 56 C54.78085937 55.05640625 54.56171875 54.1128125 54.3359375 53.140625 C49.70901397 34.03485909 40.57140613 20.57502962 24.12890625 9.83984375 C16.39236066 5.29063904 8.84503535 3.2779899 0 2 C0 1.34 0 0.68 0 0 Z " fill="#A9564C" transform="translate(315,318)"/>
<path d="M0 0 C0.33 0 0.66 0 1 0 C1.06316406 0.67160156 1.12632813 1.34320313 1.19140625 2.03515625 C2.15430086 9.89034912 4.08780719 17.24781933 6.375 24.8125 C6.81307983 26.27925171 6.81307983 26.27925171 7.26000977 27.77563477 C8.82206842 32.81980933 10.57769422 37.50624723 13.05224609 42.17211914 C13.96704342 43.93643845 14.74476382 45.76977381 15.515625 47.6015625 C28.02449721 76.24029625 53.12055864 96.74955862 81.59375 108.02734375 C90.38141849 111.13706446 99.14458182 112.35015396 108.4375 112.25 C109.82098633 112.23876099 109.82098633 112.23876099 111.23242188 112.22729492 C130.81753197 111.91760104 149.58199541 104.03356456 165 92 C165.66 92.33 166.32 92.66 167 93 C166.49210938 93.52207031 165.98421875 94.04414063 165.4609375 94.58203125 C154.42626723 106.38127605 148.18152364 120.04207292 148.6796875 136.33203125 C150.13389206 152.98444693 157.05611722 167.47969875 169.8125 178.3125 C179.58600462 185.75539967 190.28801824 189.37077619 202.5 189.1875 C203.72396484 189.1865332 203.72396484 189.1865332 204.97265625 189.18554688 C209.74469545 189.15107789 214.29391817 188.79067235 219 188 C216.3354045 191.99689326 213.13170136 192.65587301 208.75 194.0625 C207.93732666 194.32562988 207.12465332 194.58875977 206.28735352 194.85986328 C170.93355084 205.9051063 132.32802295 195.14510118 100.4375 178.75 C91.73518133 174.16324358 83.70547607 169.10694873 76 163 C74.97390625 162.195625 73.9478125 161.39125 72.890625 160.5625 C45.79062276 138.73781821 26.04128899 111.66921159 12 80 C11.566875 79.11570312 11.13375 78.23140625 10.6875 77.3203125 C8.39789603 72.59800431 7.5526089 69.25684545 8 64 C7.34 64 6.68 64 6 64 C5.18253356 59.52172518 4.37192927 55.04223389 3.5625 50.5625 C3.33240234 49.30244141 3.10230469 48.04238281 2.86523438 46.74414062 C0.79816405 35.27040245 -0.14314176 24.60574177 -0.0625 12.9375 C-0.05798828 11.69033203 -0.05347656 10.44316406 -0.04882812 9.15820312 C-0.03713163 6.10541779 -0.02074086 3.05273502 0 0 Z " fill="#235662" transform="translate(73,280)"/>
<path d="M0 0 C12.29987959 9.06926826 20.29726147 21.69506397 23.3125 36.6875 C25.63463738 52.38425554 22.32662357 66.70025382 13.11328125 79.65234375 C8.93577567 85.11018503 4.42617574 89.78649233 -1 94 C-1.721875 94.56976563 -2.44375 95.13953125 -3.1875 95.7265625 C-12.86377276 102.81577623 -26.37780098 101.92805636 -38 101 C-51.36787473 98.42359242 -63.814559 90.08956338 -72.04296875 79.328125 C-80.86752348 66.00662234 -84.49014467 51.96357114 -83 36 C-79.9214226 21.30950687 -72.15539561 8.69996547 -59.5546875 0.38671875 C-55.17461574 -2.35246046 -51.03717037 -4.67442885 -46 -6 C-46 -6.66 -46 -7.32 -46 -8 C-29.28499929 -11.83622967 -14.72755626 -9.08346284 0 0 Z " fill="#47AEA7" transform="translate(304,369)"/>
<path d="M0 0 C0.495 0.99 0.495 0.99 1 2 C0.0172686 4.19435986 -1.02354947 6.30366317 -2.125 8.4375 C-6.48065879 17.28510227 -8.78859371 26.43030648 -11 36 C-11.23589844 36.94617188 -11.47179687 37.89234375 -11.71484375 38.8671875 C-19.04217273 70.63677445 -16.00349904 108.31057421 -3.2578125 137.97265625 C-1.7436789 141.61692191 -0.78744557 145.14151671 0 149 C0.66 149 1.32 149 2 149 C2.46148437 149.85980469 2.92296875 150.71960938 3.3984375 151.60546875 C16.88757144 176.25293242 37.20973494 197.16441318 64 207 C64.66 206.67 65.32 206.34 66 206 C68.37633036 207.16262939 70.64323495 208.37930956 72.9375 209.6875 C83.05593549 215.24787521 92.5025713 218.47503563 104 220 C104 220.66 104 221.32 104 222 C72.77396751 229.36507909 44.60711836 234.6069083 15.70458984 217.10009766 C11.12141278 214.14223518 7.0257712 210.66465551 3 207 C2.36835938 206.43796875 1.73671875 205.8759375 1.0859375 205.296875 C-8.35763659 196.41387837 -14.88883447 185.28751806 -21 174 C-21.39960938 173.31808594 -21.79921875 172.63617188 -22.2109375 171.93359375 C-32.83662374 152.93486676 -34.74511786 128.20553412 -34.5625 107 C-34.55923706 105.97384583 -34.55597412 104.94769165 -34.5526123 103.89044189 C-34.43821583 79.17840061 -30.94259307 55.84821056 -21 33 C-20.50757813 31.85789063 -20.01515625 30.71578125 -19.5078125 29.5390625 C-16.55220863 22.85777563 -13.28549687 16.48877754 -9.375 10.3125 C-9.01510986 9.73661133 -8.65521973 9.16072266 -8.28442383 8.56738281 C-5.95150189 4.9998215 -3.45065348 2.48810277 0 0 Z " fill="#1F525D" transform="translate(164,138)"/>
<path d="M0 0 C-0.88042969 0.47050781 -1.76085937 0.94101562 -2.66796875 1.42578125 C-3.82941406 2.04839844 -4.99085938 2.67101562 -6.1875 3.3125 C-7.33605469 3.92738281 -8.48460937 4.54226563 -9.66796875 5.17578125 C-11.67477653 6.27446734 -13.66389052 7.40786099 -15.61328125 8.60546875 C-18 10 -18 10 -20.4296875 10.94921875 C-23.58500892 12.23916018 -26.25789634 13.97036829 -29.125 15.8125 C-48.55552249 28.02344998 -70.76033416 33.89772122 -93.57617188 28.82006836 C-100.99834553 26.9234731 -108.05380845 24.20998246 -115 21 C-113 19 -113 19 -110.90649414 18.89648438 C-110.04145264 18.96158203 -109.17641113 19.02667969 -108.28515625 19.09375 C-107.30232666 19.1561084 -106.31949707 19.2184668 -105.30688477 19.28271484 C-104.23623779 19.35441895 -103.16559082 19.42612305 -102.0625 19.5 C-81.94425264 20.54385064 -62.11036765 19.74229182 -43 13 C-42.04528809 12.66564941 -41.09057617 12.33129883 -40.10693359 11.98681641 C-33.71072838 9.72962899 -27.34504487 7.3970368 -21 5 C-21.99 4.34 -22.98 3.68 -24 3 C-20.75290806 2.29825244 -17.50199748 1.61611931 -14.25 0.9375 C-13.32960938 0.73833984 -12.40921875 0.53917969 -11.4609375 0.33398438 C-10.57148438 0.15029297 -9.68203125 -0.03339844 -8.765625 -0.22265625 C-7.94868164 -0.39547119 -7.13173828 -0.56828613 -6.29003906 -0.74633789 C-3.89799506 -1.01129884 -2.27474929 -0.73312703 0 0 Z " fill="#368F94" transform="translate(258,363)"/>
<path d="M0 0 C2 1 2 1 3.0078125 3.66796875 C3.37648437 4.82941406 3.74515625 5.99085938 4.125 7.1875 C12.0935474 30.78888304 29.70610068 52.47991327 51.83984375 64.0703125 C64.2256279 70.19646413 75.3443157 72.44560711 89.1875 72.6875 C90.53453638 72.72076617 91.88154292 72.75526396 93.22851562 72.79101562 C96.48559287 72.87273441 99.74242659 72.94213163 103 73 C98.48274478 77.8119841 91.85775856 79.51705285 85.41015625 80.32421875 C82.90246518 80.37705503 80.4963044 80.24232231 78 80 C77.11183594 79.92910156 76.22367187 79.85820312 75.30859375 79.78515625 C62.0791655 78.18322548 49.3239019 72.30438652 39 64 C38.12214844 63.33355469 37.24429688 62.66710937 36.33984375 61.98046875 C24.21101007 52.51281377 15.92247454 42.39820269 8.9296875 28.80224609 C8.12243214 27.23734087 7.28275835 25.68924089 6.4375 24.14453125 C2.47837205 16.73294946 -0.69182234 8.53247556 0 0 Z " fill="#5FBAB6" transform="translate(135,294)"/>
<path d="M0 0 C0.66 0.99 1.32 1.98 2 3 C1.32904297 3.90878906 1.32904297 3.90878906 0.64453125 4.8359375 C-10.58354693 20.39723988 -14.00882975 34.88472945 -12 54 C-9.31175652 67.17519329 -0.62442327 78.0334487 9 87 C10.33333333 88.33333333 11.66666667 89.66666667 13 91 C0.63749971 86.53214902 -7.25081154 76.30309806 -12.73828125 64.83203125 C-19.15749813 50.42357231 -20.20799009 35.6388888 -14.6953125 20.66015625 C-11.3178164 12.88777105 -6.12423947 5.81872186 0 0 Z " fill="#339192" transform="translate(239,373)"/>
<path d="M0 0 C0 0.66 0 1.32 0 2 C-12.47445584 5.97177419 -12.47445584 5.97177419 -17.6875 6.9375 C-21.12926537 7.62585307 -23.74742115 8.85967842 -26.8125 10.5625 C-32.39150298 13.5496827 -37.75394831 13.88194748 -44 14 C-37.19327396 7.19327396 -23.8397987 4.98346427 -14.8125 2.625 C-13.80872314 2.36235352 -12.80494629 2.09970703 -11.77075195 1.82910156 C-7.66804635 0.79132356 -4.26143515 0 0 0 Z " fill="#62BEBA" transform="translate(229,94)"/>
<path d="M0 0 C26.73 0 53.46 0 81 0 C81 0.33 81 0.66 81 1 C80.11938904 1.01030746 79.23877808 1.02061493 78.33148193 1.03123474 C70.03275694 1.12921035 61.73410311 1.23172498 53.43549728 1.33933926 C49.16910098 1.39450468 44.90269774 1.44791443 40.63623047 1.49731445 C36.51890407 1.54505218 32.40165971 1.5973983 28.28443146 1.65294075 C26.71358533 1.6733217 25.14271675 1.69204175 23.57183075 1.70907402 C21.37169788 1.73321252 19.17171889 1.76325385 16.97167969 1.79467773 C15.0930423 1.81799416 15.0930423 1.81799416 13.17645264 1.84178162 C10.56503498 1.97185574 8.49831365 2.35001311 6 3 C3.99053778 2.72949547 1.98645776 2.40632091 0 2 C0 1.34 0 0.68 0 0 Z " fill="#BF664F" transform="translate(315,318)"/>
<path d="M0 0 C0.66 0.33 1.32 0.66 2 1 C0.45958996 5.62123013 -3.20627804 6.59071101 -7.375 8.75 C-8.15617187 9.17410156 -8.93734375 9.59820312 -9.7421875 10.03515625 C-10.495 10.43089844 -11.2478125 10.82664062 -12.0234375 11.234375 C-12.71356934 11.59756836 -13.40370117 11.96076172 -14.11474609 12.33496094 C-16 13 -16 13 -19 12 C-17.948125 11.45472656 -17.948125 11.45472656 -16.875 10.8984375 C-10.838803 7.6999092 -5.31501114 4.29465084 0 0 Z " fill="#E6906C" transform="translate(397,452)"/>
<path d="M0 0 C3.3514298 1.6757149 3.99895155 5.04418835 5.3125 8.41015625 C6.2197994 11.82799433 5.62914012 13.90463377 4 17 C0.51645625 11.77468437 -0.30934332 6.1868663 0 0 Z " fill="#50B1AD" transform="translate(135,294)"/>
<path d="M0 0 C0.33 0.66 0.66 1.32 1 2 C-1.22059541 3.8239532 -3.45041166 5.63397323 -5.6875 7.4375 C-6.31333984 7.95376953 -6.93917969 8.47003906 -7.58398438 9.00195312 C-10.9803797 11.72262582 -13.50285165 13.66464859 -18 14 C-15.45651078 11.25954023 -12.5968717 9.17387823 -9.5625 7 C-6.35279772 4.69425469 -3.15185868 2.38438482 0 0 Z " fill="#DE7A69" transform="translate(341,456)"/>
<path d="M0 0 C0 0.66 0 1.32 0 2 C-2.10063576 2.69821417 -4.20565737 3.38324472 -6.3125 4.0625 C-7.48425781 4.44535156 -8.65601563 4.82820313 -9.86328125 5.22265625 C-13 6 -13 6 -16 5 C-15.01 4.67 -14.02 4.34 -13 4 C-13 3.34 -13 2.68 -13 2 C-11.58461283 1.66127487 -10.16762037 1.32925376 -8.75 1 C-7.56664062 0.7215625 -7.56664062 0.7215625 -6.359375 0.4375 C-4 0 -4 0 0 0 Z " fill="#439C99" transform="translate(229,94)"/>
<path d="M0 0 C0.33 0.99 0.66 1.98 1 3 C-2.63 6.63 -6.26 10.26 -10 14 C-10 9.84439769 -7.7179548 8.15900671 -5 5.3125 C-4.52304688 4.80138672 -4.04609375 4.29027344 -3.5546875 3.76367188 C-2.37640085 2.50290516 -1.18904747 1.25062314 0 0 Z " fill="#63BBB7" transform="translate(125,150)"/>
<path d="M0 0 C0.66 0.33 1.32 0.66 2 1 C-1.63 4.63 -5.26 8.26 -9 12 C-9.33 11.01 -9.66 10.02 -10 9 C-6.7 6.03 -3.4 3.06 0 0 Z " fill="#E98472" transform="translate(255,230)"/>
<path d="M0 0 C-3.3340947 2.19097652 -6.04179141 3.43454163 -10 4 C-10 3.01 -10 2.02 -10 1 C-3.71428571 -1.42857143 -3.71428571 -1.42857143 0 0 Z " fill="#36676C" transform="translate(292,469)"/>
<path d="M0 0 C-2.35548955 2.35548955 -3.65714961 2.58160378 -6.875 3.25 C-7.73867187 3.44078125 -8.60234375 3.6315625 -9.4921875 3.828125 C-12.32790954 4.02247355 -13.61957818 3.48361174 -16 2 C-14.27192682 1.66104344 -12.54248026 1.32908475 -10.8125 1 C-9.84957031 0.814375 -8.88664063 0.62875 -7.89453125 0.4375 C-5.2065794 0.03122388 -2.71228981 -0.07933572 0 0 Z " fill="#439899" transform="translate(250,364)"/>
<path d="M0 0 C3.3 0 6.6 0 10 0 C9.67 1.32 9.34 2.64 9 4 C4.53159589 3.50351065 3.31012244 3.31012244 0 0 Z " fill="#6C4955" transform="translate(323,319)"/>
<path d="M0 0 C4.62 0 9.24 0 14 0 C10 3 10 3 7.421875 3.07421875 C6.09929687 2.88279297 6.09929687 2.88279297 4.75 2.6875 C3.85796875 2.56761719 2.9659375 2.44773437 2.046875 2.32421875 C1.37140625 2.21722656 0.6959375 2.11023438 0 2 C0 1.34 0 0.68 0 0 Z " fill="#B87B73" transform="translate(315,318)"/>
<path d="M0 0 C4.62 0 9.24 0 14 0 C10.81237635 2.12508244 8.73487777 2.5020163 5 3 C5 2.34 5 1.68 5 1 C3.35 1 1.7 1 0 1 C0 0.67 0 0.34 0 0 Z " fill="#EE8245" transform="translate(412,223)"/>
<path d="M0 0 C2.31 0 4.62 0 7 0 C4.14693203 2.32472205 1.45925163 3.7508258 -2 5 C-1.34 3.35 -0.68 1.7 0 0 Z " fill="#53B6B2" transform="translate(200,101)"/>
</svg>
